<?xml version="1.0" encoding="utf-8"?>
<!-- Generator: Adobe Illustrator 16.0.0, SVG Export Plug-In . SVG Version: 6.00 Build 0)  -->
<!DOCTYPE svg PUBLIC "-//W3C//DTD SVG 1.1//EN" "http://www.w3.org/Graphics/SVG/1.1/DTD/svg11.dtd">
<svg version="1.1" id="Capa_1" xmlns="http://www.w3.org/2000/svg" xmlns:xlink="http://www.w3.org/1999/xlink" x="0px" y="0px"
	 width="139px" height="93.445px" viewBox="246.14 0 139 93.445" enable-background="new 246.14 0 139 93.445" xml:space="preserve"
	>
<g id="Capa_2">
</g>
<polygon fill="#FFFFFF" points="296.909,23.939 296.909,32.943 314.406,32.943 314.423,80.271 324.93,80.271 324.914,32.943 
	342.078,32.943 342.078,23.939 "/>
<polygon fill="#FFFFFF" points="345.601,37.196 345.601,68.675 345.632,68.675 345.632,72.863 329.123,72.863 329.123,80.271 
	372.242,80.271 372.242,37.196 "/>
<rect x="329.123" y="37.196" fill="#FFFFFF" width="12.312" height="31.479"/>
<rect x="296.909" y="37.071" fill="#FFFFFF" width="13.276" height="31.604"/>
<polygon fill="#FFFFFF" points="296.909,72.863 296.909,72.939 292.722,72.939 292.722,37.071 267.075,37.071 267.075,80.271 
	310.185,80.271 310.185,72.863 "/>
</svg>
