<?xml version="1.0" encoding="utf-8"?>
<!-- Generator: Adobe Illustrator 19.2.1, SVG Export Plug-In . SVG Version: 6.00 Build 0)  -->
<svg version="1.1" id="Capa_1" xmlns="http://www.w3.org/2000/svg" xmlns:xlink="http://www.w3.org/1999/xlink" x="0px" y="0px"
	 viewBox="0 0 150 150" style="enable-background:new 0 0 150 150;" xml:space="preserve">
<style type="text/css">
	.st0{fill:#FFFFFF;}
</style>
<g>
	<path class="st0" d="M75,8.6c36.7,0,66.4,29.7,66.4,66.4s-29.7,66.4-66.4,66.4S8.6,111.7,8.6,75S38.3,8.6,75,8.6z"/>
	<path class="st0" d="M97.9,37.7H52.1c-8,0-14.4,6.5-14.4,14.4v45.8c0,8,6.5,14.4,14.4,14.4h45.8c8,0,14.4-6.5,14.4-14.4V52.1
		C112.3,44.1,105.9,37.7,97.9,37.7z M102.5,46l1.6,0v12.4l-12.5,0l0-12.4C91.6,46,102.5,46,102.5,46z M75,62.5
		c10.4,0,12.5,9.7,12.5,12.5c0,6.9-5.6,12.5-12.5,12.5c-6.9,0-12.5-5.6-12.5-12.5C62.5,72.2,64.6,62.5,75,62.5z M104.2,97
		c0,3.9-3.2,7.2-7.2,7.2H52.9c-3.9,0-7.2-3.2-7.2-7.2V66.7h10.4c-1,2.4-1.5,5.6-1.5,8.3c0,11.3,9.2,20.4,20.4,20.4
		S95.4,86.3,95.4,75c0-2.7-0.5-5.9-1.5-8.3h10.2L104.2,97L104.2,97z"/>
</g>
</svg>
