<?xml version="1.0" encoding="utf-8"?>
<!-- Generator: Adobe Illustrator 16.0.0, SVG Export Plug-In . SVG Version: 6.00 Build 0)  -->
<!DOCTYPE svg PUBLIC "-//W3C//DTD SVG 1.1//EN" "http://www.w3.org/Graphics/SVG/1.1/DTD/svg11.dtd">
<svg version="1.1" id="Capa_1" xmlns="http://www.w3.org/2000/svg" xmlns:xlink="http://www.w3.org/1999/xlink" x="0px" y="0px"
	 width="371px" height="154.445px" viewBox="118.14 0 371 154.445" enable-background="new 118.14 0 371 154.445"
	 xml:space="preserve">
<g id="Capa_2">
</g>
<g>
	<g>
		<path fill="#FFFFFF" d="M156.831,98.199c-0.47-2.061-1.343-3.525-2.619-4.398c-1.275-0.873-2.944-1.309-5.003-1.309
			c-1.455,0-2.708,0.291-3.759,0.873c-1.053,0.582-1.919,1.365-2.603,2.35c-0.683,0.985-1.187,2.121-1.511,3.408
			c-0.325,1.287-0.486,2.646-0.486,4.078c0,1.344,0.139,2.664,0.419,3.962c0.279,1.299,0.745,2.458,1.394,3.475
			c0.649,1.02,1.521,1.843,2.619,2.468c1.096,0.627,2.473,0.94,4.129,0.94c1.029,0,1.969-0.168,2.82-0.504
			c0.851-0.336,1.594-0.8,2.231-1.394c0.638-0.594,1.176-1.293,1.612-2.099c0.437-0.806,0.767-1.689,0.99-2.653h2.384
			c-0.269,1.166-0.661,2.267-1.175,3.308c-0.515,1.041-1.192,1.954-2.031,2.735c-0.839,0.784-1.858,1.406-3.056,1.863
			c-1.197,0.459-2.602,0.688-4.213,0.688c-1.858,0-3.447-0.341-4.768-1.024c-1.32-0.682-2.4-1.604-3.239-2.769
			c-0.84-1.164-1.45-2.513-1.831-4.046c-0.38-1.533-0.57-3.161-0.57-4.885c0-2.306,0.286-4.265,0.854-5.875
			c0.571-1.611,1.361-2.926,2.368-3.944s2.192-1.757,3.559-2.216c1.365-0.459,2.854-0.688,4.466-0.688
			c1.229,0,2.377,0.163,3.44,0.488c1.063,0.323,2.003,0.812,2.82,1.46c0.817,0.647,1.488,1.449,2.015,2.399
			c0.524,0.952,0.89,2.054,1.09,3.308H156.831z"/>
		<path fill="#FFFFFF" d="M162.976,103.301c0-1.768,0.239-3.425,0.722-4.968c0.48-1.545,1.191-2.892,2.131-4.045
			c0.941-1.153,2.104-2.066,3.492-2.736c1.388-0.672,2.989-1.008,4.802-1.008c1.88,0,3.53,0.331,4.952,0.99
			c1.421,0.661,2.606,1.566,3.559,2.72c0.951,1.153,1.667,2.506,2.149,4.062c0.481,1.556,0.721,3.217,0.721,4.984
			c0,1.746-0.24,3.387-0.721,4.919c-0.482,1.533-1.192,2.875-2.132,4.029c-0.94,1.153-2.115,2.063-3.524,2.736
			c-1.411,0.67-3.045,1.006-4.903,1.006c-1.857,0-3.49-0.336-4.901-1.006c-1.41-0.673-2.584-1.583-3.524-2.736
			c-0.939-1.153-1.645-2.496-2.115-4.029C163.211,106.687,162.976,105.047,162.976,103.301z M174.256,114.045
			c1.567,0,2.916-0.296,4.045-0.891c1.131-0.594,2.06-1.381,2.787-2.366c0.729-0.985,1.266-2.127,1.612-3.425
			c0.347-1.299,0.521-2.653,0.521-4.063c0-1.679-0.208-3.183-0.622-4.515c-0.414-1.332-1.012-2.469-1.796-3.409
			c-0.783-0.94-1.735-1.656-2.854-2.149c-1.119-0.491-2.372-0.736-3.76-0.736c-1.545,0-2.882,0.302-4.012,0.904
			c-1.129,0.605-2.06,1.406-2.787,2.4c-0.727,0.997-1.265,2.145-1.611,3.442c-0.348,1.298-0.521,2.651-0.521,4.062
			c0,1.434,0.172,2.798,0.521,4.096c0.346,1.3,0.884,2.44,1.611,3.426c0.727,0.984,1.657,1.769,2.787,2.351
			C171.306,113.754,172.667,114.045,174.256,114.045z"/>
		<path fill="#FFFFFF" d="M189.934,115.355V91.181h3.492l7.923,21.319h0.067l7.79-21.319h3.458v24.174h-2.283V93.801h-0.066
			l-7.923,21.555h-2.149l-7.958-21.555h-0.067v21.555H189.934z"/>
		<path fill="#FFFFFF" d="M218.002,115.355V91.181h16.082v1.948h-13.799v8.728h12.456v1.948h-12.456v9.604h14.133v1.946H218.002
			L218.002,115.355z"/>
		<path fill="#FFFFFF" d="M240.764,104.376v10.978l-2.283-0.033V91.18h9.468c2.663,0,4.699,0.499,6.109,1.495
			c1.411,0.996,2.116,2.614,2.116,4.852c0,1.522-0.309,2.73-0.923,3.625c-0.616,0.896-1.617,1.656-3.005,2.283
			c0.716,0.246,1.276,0.604,1.679,1.074c0.403,0.471,0.705,1.007,0.907,1.612c0.201,0.604,0.329,1.242,0.385,1.912
			c0.056,0.672,0.096,1.321,0.118,1.948c0.022,0.918,0.062,1.679,0.117,2.282c0.056,0.604,0.123,1.098,0.202,1.478
			c0.078,0.381,0.172,0.677,0.286,0.891c0.111,0.213,0.246,0.374,0.403,0.486v0.201l-2.519,0.033
			c-0.246-0.402-0.419-0.962-0.521-1.679c-0.1-0.716-0.179-1.466-0.235-2.249c-0.056-0.784-0.1-1.545-0.134-2.284
			c-0.034-0.737-0.096-1.343-0.185-1.812c-0.134-0.649-0.352-1.169-0.654-1.561c-0.303-0.392-0.667-0.688-1.091-0.891
			c-0.425-0.201-0.902-0.335-1.428-0.403c-0.526-0.066-1.068-0.1-1.627-0.1L240.764,104.376L240.764,104.376z M247.881,102.427
			c0.852,0,1.641-0.089,2.368-0.268c0.727-0.18,1.359-0.464,1.897-0.856c0.537-0.392,0.961-0.89,1.273-1.495
			c0.314-0.604,0.47-1.33,0.47-2.182c0-0.895-0.163-1.634-0.486-2.216c-0.325-0.582-0.761-1.041-1.309-1.377
			c-0.549-0.336-1.176-0.571-1.881-0.705c-0.705-0.134-1.438-0.201-2.198-0.201h-7.252v9.299L247.881,102.427L247.881,102.427z"/>
		<path fill="#FFFFFF" d="M278.064,98.199c-0.47-2.061-1.343-3.525-2.619-4.398c-1.276-0.873-2.944-1.309-5.003-1.309
			c-1.455,0-2.708,0.291-3.759,0.873c-1.053,0.582-1.919,1.365-2.603,2.35c-0.683,0.985-1.187,2.121-1.511,3.408
			c-0.325,1.287-0.486,2.646-0.486,4.078c0,1.344,0.139,2.664,0.419,3.962c0.28,1.299,0.744,2.458,1.394,3.475
			c0.648,1.02,1.521,1.843,2.619,2.468c1.095,0.627,2.473,0.94,4.129,0.94c1.028,0,1.969-0.168,2.819-0.504
			c0.852-0.336,1.594-0.8,2.232-1.394c0.638-0.594,1.176-1.293,1.612-2.099c0.437-0.806,0.766-1.689,0.99-2.653h2.384
			c-0.269,1.166-0.661,2.267-1.175,3.308s-1.191,1.954-2.031,2.735c-0.839,0.784-1.858,1.406-3.056,1.863
			c-1.197,0.459-2.601,0.688-4.213,0.688c-1.858,0-3.447-0.341-4.768-1.024c-1.32-0.682-2.4-1.604-3.239-2.769
			c-0.84-1.164-1.449-2.513-1.831-4.046c-0.379-1.533-0.569-3.161-0.569-4.885c0-2.306,0.285-4.265,0.855-5.875
			c0.571-1.611,1.361-2.926,2.368-3.944c1.007-1.019,2.191-1.757,3.559-2.216c1.365-0.459,2.854-0.688,4.466-0.688
			c1.229,0,2.377,0.163,3.441,0.488c1.063,0.323,2.003,0.812,2.82,1.46c0.817,0.647,1.487,1.449,2.015,2.399
			c0.525,0.952,0.89,2.054,1.09,3.308H278.064z"/>
		<path fill="#FFFFFF" d="M285.953,115.355V91.181h2.284v24.174H285.953z"/>
		<path fill="#FFFFFF" d="M292.265,115.355l9.501-24.174h2.584l9.267,24.174h-2.351l-2.786-7.588h-11.013l-2.854,7.588H292.265z
			 M298.242,105.819h9.467l-4.734-12.689L298.242,105.819z"/>
		<path fill="#FFFFFF" d="M316.875,115.355V91.181h2.283v22.228h12.959v1.946H316.875L316.875,115.355z"/>
		<path fill="#FFFFFF" d="M344.939,95.546v19.808h-5.035V95.546h-7.285v-4.264h19.605v4.264H344.939z"/>
		<path fill="#FFFFFF" d="M354.105,103.301c0-3.445,0.762-6.221,2.283-8.326c1.186-1.633,2.818-2.83,4.9-3.591
			c1.41-0.515,2.889-0.772,4.433-0.772c1.521,0,2.987,0.258,4.397,0.772c2.06,0.761,3.682,1.958,4.867,3.591
			c1.522,2.105,2.283,4.881,2.283,8.326c0,3.447-0.761,6.223-2.283,8.326c-1.187,1.657-2.797,2.854-4.834,3.593
			c-1.41,0.515-2.887,0.772-4.432,0.772c-1.544,0-3.021-0.258-4.432-0.772c-2.037-0.739-3.66-1.936-4.867-3.593
			C354.878,109.502,354.105,106.725,354.105,103.301z M359.14,103.301c0,3.045,0.75,5.294,2.25,6.749
			c1.163,1.119,2.605,1.679,4.331,1.679c1.7,0,3.123-0.561,4.265-1.679c1.5-1.455,2.25-3.704,2.25-6.749
			c0-3.043-0.74-5.292-2.217-6.749c-1.143-1.119-2.574-1.677-4.298-1.677c-1.7,0-3.134,0.559-4.298,1.677
			C359.902,98.009,359.14,100.258,359.14,103.301z"/>
		<path fill="#FFFFFF" d="M386.369,91.283v19.707h11.986v4.365h-17.021V91.283H386.369z"/>
		<path fill="#FFFFFF" d="M419.572,91.283v4.264h-12.791v5.037h11.752v4.263h-11.752v6.245h13.362v4.264h-18.297V91.284
			L419.572,91.283L419.572,91.283z"/>
		<path fill="#FFFFFF" d="M424.24,115.355V91.283h10.641c3.629,0,6.279,1.341,7.959,4.022c1.23,1.968,1.848,4.448,1.848,7.442
			c0,3.242-0.672,5.979-2.016,8.214c-1.746,2.929-4.41,4.392-7.99,4.392H424.24V115.355z M429.14,95.445l0.033,15.747h4.902
			c1.879,0,3.301-0.851,4.264-2.546c0.807-1.43,1.207-3.272,1.207-5.529c0-3.125-0.658-5.292-1.98-6.498
			c-0.85-0.782-2.047-1.174-3.59-1.174H429.14L429.14,95.445z"/>
		<path fill="#FFFFFF" d="M447.371,103.301c0-3.445,0.762-6.221,2.283-8.326c1.186-1.633,2.82-2.83,4.902-3.591
			c1.408-0.515,2.887-0.772,4.432-0.772c1.521,0,2.986,0.258,4.398,0.772c2.059,0.761,3.68,1.958,4.865,3.591
			c1.523,2.105,2.283,4.881,2.283,8.326c0,3.447-0.76,6.223-2.283,8.326c-1.186,1.657-2.797,2.854-4.834,3.593
			c-1.408,0.515-2.887,0.772-4.432,0.772c-1.543,0-3.021-0.258-4.432-0.772c-2.037-0.739-3.66-1.936-4.867-3.593
			C448.144,109.502,447.371,106.725,447.371,103.301z M452.406,103.301c0,3.045,0.75,5.294,2.25,6.749
			c1.164,1.119,2.607,1.679,4.332,1.679c1.699,0,3.123-0.561,4.264-1.679c1.5-1.455,2.25-3.704,2.25-6.749
			c0-3.043-0.738-5.292-2.217-6.749c-1.143-1.119-2.574-1.677-4.297-1.677c-1.701,0-3.135,0.559-4.299,1.677
			C453.167,98.009,452.406,100.258,452.406,103.301z"/>
		<path fill="#FFFFFF" d="M317.501,131.909v4.069h-0.651v-9.34h2.224c1.158,0,2.014,0.215,2.567,0.643s0.829,1.072,0.829,1.933
			c0,0.626-0.164,1.154-0.493,1.584c-0.292,0.38-0.716,0.665-1.272,0.854c-0.074,0.024-0.967,0.274-2.123,0.201l3.428,4.125h-0.779
			l-3.408-4.069H317.501z M317.501,131.346h1.781c0.787,0,1.398-0.176,1.834-0.526c0.435-0.352,0.652-0.87,0.652-1.556
			c0-0.711-0.214-1.229-0.641-1.552c-0.426-0.324-1.12-0.484-2.082-0.484h-1.545V131.346L317.501,131.346z"/>
		<path fill="#FFFFFF" d="M333.652,135.978h-5.105v-9.34h5.105v0.602h-4.451v3.531h4.203v0.602h-4.203v4.005h4.451V135.978z"/>
		<path fill="#FFFFFF" d="M345.21,126.638h0.709l-3.493,9.34h-0.575l-3.48-9.34h0.695l2.352,6.357
			c0.357,0.958,0.599,1.677,0.723,2.159c0.084-0.32,0.254-0.815,0.504-1.488L345.21,126.638z"/>
		<path fill="#FFFFFF" d="M356.269,135.978h-5.104v-9.34h5.104v0.602h-4.451v3.531h4.203v0.602h-4.203v4.005h4.451V135.978z"/>
		<path fill="#FFFFFF" d="M367.464,133.571c0,0.777-0.286,1.396-0.857,1.852c-0.574,0.455-1.334,0.685-2.283,0.685
			c-1.143,0-2.018-0.125-2.627-0.377v-0.651c0.674,0.285,1.531,0.428,2.576,0.428c0.766,0,1.373-0.175,1.822-0.526
			c0.447-0.353,0.674-0.812,0.674-1.384c0-0.353-0.074-0.646-0.225-0.877c-0.148-0.231-0.391-0.444-0.727-0.636
			c-0.338-0.192-0.832-0.398-1.482-0.619c-0.955-0.329-1.614-0.683-1.979-1.062c-0.363-0.383-0.545-0.891-0.545-1.524
			c0-0.699,0.271-1.268,0.82-1.708c0.547-0.441,1.251-0.662,2.109-0.662c0.879,0,1.703,0.166,2.474,0.499l-0.235,0.562
			c-0.775-0.323-1.518-0.485-2.225-0.485c-0.689,0-1.238,0.16-1.648,0.479c-0.408,0.319-0.613,0.754-0.613,1.304
			c0,0.345,0.063,0.628,0.189,0.849c0.126,0.223,0.332,0.421,0.616,0.598s0.774,0.389,1.469,0.636
			c0.729,0.251,1.276,0.495,1.644,0.73c0.365,0.237,0.633,0.505,0.801,0.806C367.38,132.781,367.464,133.144,367.464,133.571z"/>
		<path fill="#FFFFFF" d="M375.796,135.978h-0.658v-8.727h-3.033v-0.613h6.729v0.613h-3.035v8.727H375.796z"/>
		<path fill="#FFFFFF" d="M384.14,135.978v-9.34h0.652v9.34H384.14z"/>
		<path fill="#FFFFFF" d="M395.471,135.978l-3.481-8.625h-0.051c0.033,0.528,0.051,1.069,0.051,1.623v7.002h-0.625v-9.34h1.008
			l3.311,8.215h0.038l3.31-8.215h0.982v9.34h-0.658V128.9c0-0.494,0.025-1.006,0.077-1.533h-0.052l-3.493,8.609h-0.416V135.978z"/>
		<path fill="#FFFFFF" d="M406.574,135.978v-9.34h0.652v9.34H406.574z"/>
		<path fill="#FFFFFF" d="M418.9,135.978h-5.105v-9.34h5.105v0.602h-4.451v3.531h4.201v0.602h-4.201v4.005h4.451V135.978z"/>
		<path fill="#FFFFFF" d="M431.728,135.978h-0.658l-5.531-8.293h-0.051c0.051,0.988,0.078,1.733,0.078,2.236v6.057h-0.627v-9.34
			h0.65l5.525,8.28h0.039c-0.039-0.767-0.059-1.496-0.059-2.185v-6.096h0.633V135.978L431.728,135.978z"/>
		<path fill="#FFFFFF" d="M440.73,135.978h-0.656v-8.727h-3.035v-0.613h6.729v0.613h-3.035v8.727H440.73z"/>
		<path fill="#FFFFFF" d="M456.927,131.296c0,1.481-0.369,2.654-1.109,3.517c-0.742,0.862-1.764,1.293-3.066,1.293
			c-1.299,0-2.318-0.431-3.061-1.293s-1.111-2.039-1.111-3.528c0-1.487,0.373-2.657,1.121-3.511c0.746-0.854,1.77-1.281,3.062-1.281
			c1.305,0,2.324,0.429,3.062,1.287C456.558,128.637,456.927,129.808,456.927,131.296z M449.287,131.296
			c0,1.337,0.299,2.371,0.896,3.101c0.596,0.73,1.453,1.097,2.566,1.097c1.125,0,1.984-0.363,2.578-1.086
			c0.594-0.726,0.893-1.761,0.893-3.111c0-1.346-0.299-2.377-0.893-3.095c-0.594-0.717-1.449-1.076-2.564-1.076
			c-1.111,0-1.969,0.362-2.57,1.085C449.589,128.934,449.287,129.963,449.287,131.296z"/>
		<path fill="#FFFFFF" d="M468.154,133.571c0,0.777-0.287,1.396-0.859,1.852c-0.572,0.455-1.334,0.685-2.283,0.685
			c-1.143,0-2.018-0.125-2.627-0.377v-0.651c0.674,0.285,1.533,0.428,2.574,0.428c0.768,0,1.375-0.175,1.824-0.526
			c0.451-0.353,0.674-0.812,0.674-1.384c0-0.353-0.072-0.646-0.223-0.877c-0.148-0.231-0.393-0.444-0.729-0.636
			c-0.338-0.192-0.83-0.398-1.482-0.619c-0.953-0.329-1.613-0.683-1.977-1.062c-0.363-0.383-0.547-0.891-0.547-1.524
			c0-0.699,0.273-1.268,0.82-1.708c0.547-0.439,1.25-0.662,2.111-0.662c0.877,0,1.701,0.166,2.473,0.499l-0.236,0.562
			c-0.773-0.323-1.516-0.485-2.223-0.485c-0.691,0-1.24,0.16-1.648,0.479c-0.408,0.319-0.613,0.754-0.613,1.304
			c0,0.345,0.062,0.628,0.188,0.849c0.127,0.223,0.332,0.421,0.617,0.598s0.773,0.389,1.469,0.636
			c0.729,0.251,1.275,0.495,1.645,0.73c0.363,0.237,0.633,0.505,0.799,0.806C468.07,132.781,468.154,133.144,468.154,133.571z"/>
	</g>
	<polygon fill="#FFFFFF" points="296.909,23.939 296.909,32.943 314.406,32.943 314.423,80.271 324.93,80.271 324.914,32.943 
		342.078,32.943 342.078,23.939 	"/>
	<polygon fill="#FFFFFF" points="345.601,37.196 345.601,68.675 345.632,68.675 345.632,72.863 329.123,72.863 329.123,80.271 
		372.242,80.271 372.242,37.196 	"/>
	<rect x="329.123" y="37.196" fill="#FFFFFF" width="12.312" height="31.479"/>
	<rect x="296.909" y="37.071" fill="#FFFFFF" width="13.276" height="31.604"/>
	<polygon fill="#FFFFFF" points="296.909,72.863 296.909,72.939 292.722,72.939 292.722,37.071 267.075,37.071 267.075,80.271 
		310.185,80.271 310.185,72.863 	"/>
</g>
</svg>
