<?xml version="1.0" encoding="utf-8"?>
<!-- Generator: Adobe Illustrator 19.2.1, SVG Export Plug-In . SVG Version: 6.00 Build 0)  -->
<svg version="1.1" id="Capa_1" xmlns="http://www.w3.org/2000/svg" xmlns:xlink="http://www.w3.org/1999/xlink" x="0px" y="0px"
	 viewBox="0 0 150 150" style="enable-background:new 0 0 150 150;" xml:space="preserve">
<style type="text/css">
	.st0{fill:#FFFFFF;}
</style>
<g>
	<rect x="15.6" y="42.2" class="st0" width="52" height="86.9"/>
	<path class="st0" d="M12.9,30.2h3.5v2.3h7v-2.3h21.1v2.3h7v-2.3h39.5h3.5v2.3h7v-2.3h7h7h6.5h0.5v2.3h7v-2.3h7.4
		c1.9,0,3.5-1,3.5-2.3c0-1.3-1.6-2.3-3.5-2.3h-7.4v-2.3c0-1.3-1.6-2.3-3.5-2.3c-1.9,0-3.5,1-3.5,2.3v2.3h-21.1v-2.3
		c0-1.3-1.6-2.3-3.5-2.3c-1.9,0-3.5,1-3.5,2.3v2.3h-3.5c-0.1,0-0.1,0-0.1,0l-39.4,0v-2.3C51.5,22,50,21,48,21c-1.9,0-3.5,1-3.5,2.3
		v2.3H23.4v-2.3c0-1.3-1.6-2.3-3.5-2.3c-1.9,0-3.5,1-3.5,2.3v2.3h-3.5c-1.9,0-3.5,1-3.5,2.3C9.4,29.2,11,30.2,12.9,30.2z"/>
	<rect x="83.7" y="42.2" class="st0" width="52.4" height="86.9"/>
</g>
</svg>
