<?xml version="1.0" encoding="utf-8"?>
<!-- Generator: Adobe Illustrator 19.2.1, SVG Export Plug-In . SVG Version: 6.00 Build 0)  -->
<svg version="1.1" id="Capa_1" xmlns="http://www.w3.org/2000/svg" xmlns:xlink="http://www.w3.org/1999/xlink" x="0px" y="0px"
	 viewBox="0 0 150 150" style="enable-background:new 0 0 150 150;" xml:space="preserve">
<style type="text/css">
	.st0{fill:#A8A7A5;}
	.st1{fill:#FFFFFF;}
</style>
<g>
	<rect class="st0" width="150" height="150"/>
	<g>
		<path class="st1" d="M85.5,53c-1,0-2-0.2-2.9-0.5l-7.5,4.9V66c0,1.2-0.5,2.4-1.4,3.3l-0.1,0.1l-8.3,6l-8-5.5l9-6.1v-7.4l-25.4,17
			L64.7,86l36.7-24.6L85.5,53L85.5,53z"/>
		<path class="st1" d="M102.4,32.7c-1.5-2.1-4.4-2.6-6.5-1.1L82.6,41c-1.9,1.4-2.5,3.9-1.4,5.9l-11.1,7.2c-0.3,0.2-0.5,0.5-0.5,0.9
			v10.6L63.2,70l2,1.4l6.2-4.5c0.2-0.2,0.3-0.5,0.3-0.8V55.5l10.7-7c1.6,1.4,3.9,1.5,5.7,0.3l13.3-9.4c2.1-1.5,2.6-4.4,1.1-6.5
			L102.4,32.7z"/>
	</g>
	<g>
		<path class="st1" d="M42.6,107.8l-1.3,2.7h-1.7l4.7-9.4h2l1.2,9.4h-1.7l-0.3-2.7H42.6z M45.4,106.6l-0.3-2.4
			c0-0.5-0.1-1.2-0.1-1.8h0c-0.3,0.6-0.5,1.2-0.8,1.8l-1.1,2.4H45.4z"/>
		<path class="st1" d="M50.4,101.2c0.8-0.1,1.6-0.2,2.5-0.2c1.5,0,2.7,0.4,3.5,1.1c0.6,0.6,1.1,1.5,1.1,2.8c0,1.8-0.7,3.4-1.9,4.4
			c-1.1,0.9-2.5,1.3-4.4,1.3c-1,0-1.9-0.1-2.5-0.1L50.4,101.2z M50.5,109.2c0.3,0,0.7,0.1,1,0.1c1.3,0,2.3-0.4,3-1.2
			c0.7-0.8,1.1-1.9,1.1-3.1c0-1.6-0.8-2.6-2.8-2.6c-0.4,0-0.8,0-1.1,0.1L50.5,109.2z"/>
		<path class="st1" d="M61.4,101.1l-0.7,3.8h3.8l0.7-3.8h1.6l-1.8,9.4h-1.6l0.8-4.2h-3.9l-0.8,4.2H58l1.8-9.4H61.4z"/>
		<path class="st1" d="M72.8,106.3h-3.4l-0.5,2.8h3.8l-0.3,1.4H67l1.8-9.4h5.2l-0.3,1.4h-3.6l-0.5,2.5h3.4L72.8,106.3z"/>
		<path class="st1" d="M74.3,108.7c0.5,0.4,1.3,0.6,2.1,0.6c0.9,0,1.8-0.5,1.8-1.4c0-0.6-0.4-1-1.3-1.5c-1.1-0.6-1.9-1.3-1.9-2.5
			c0-1.8,1.6-2.9,3.5-2.9c1.1,0,1.7,0.3,2.1,0.5l-0.5,1.4c-0.3-0.2-0.9-0.4-1.7-0.4c-1,0-1.6,0.6-1.6,1.2c0,0.6,0.5,1,1.4,1.5
			c1.1,0.6,1.8,1.4,1.8,2.5c0,1.9-1.5,3.1-3.6,3.1c-1.1,0-2.1-0.3-2.5-0.7L74.3,108.7z"/>
		<path class="st1" d="M84.2,101.1l-1.8,9.4h-1.6l1.8-9.4H84.2z"/>
		<path class="st1" d="M86.4,110.5l-1.2-9.4h1.7l0.5,5.2c0.1,1,0.2,1.7,0.2,2.5h0c0.3-0.8,0.7-1.6,1.2-2.6l2.5-5.1h1.8l-4.9,9.4
			H86.4z"/>
		<path class="st1" d="M101.5,104.9c0,1.7-0.6,3.4-1.7,4.5c-0.9,0.8-2,1.3-3.4,1.3c-2.4,0-3.7-1.8-3.7-3.9c0-1.7,0.6-3.4,1.8-4.5
			c0.9-0.8,2-1.3,3.3-1.3C100.3,100.9,101.5,102.7,101.5,104.9z M95.8,103.1c-0.8,0.8-1.3,2.4-1.3,3.6c0,1.4,0.6,2.6,2.2,2.6
			c0.7,0,1.3-0.3,1.8-0.8c0.8-0.8,1.3-2.4,1.3-3.6c0-1.2-0.4-2.6-2.2-2.6C96.9,102.3,96.3,102.6,95.8,103.1z"/>
		<path class="st1" d="M102.3,108.7c0.5,0.4,1.3,0.6,2.1,0.6c0.9,0,1.8-0.5,1.8-1.4c0-0.6-0.4-1-1.3-1.5c-1.1-0.6-1.9-1.3-1.9-2.5
			c0-1.8,1.6-2.9,3.5-2.9c1.1,0,1.7,0.3,2.1,0.5l-0.5,1.4c-0.3-0.2-0.9-0.4-1.7-0.4c-1,0-1.6,0.6-1.6,1.2c0,0.6,0.5,1,1.4,1.5
			c1.1,0.6,1.8,1.4,1.8,2.5c0,1.9-1.5,3.1-3.6,3.1c-1.1,0-2.1-0.3-2.5-0.7L102.3,108.7z"/>
	</g>
</g>
</svg>
