<?xml version="1.0" encoding="utf-8"?>
<!-- Generator: Adobe Illustrator 19.2.1, SVG Export Plug-In . SVG Version: 6.00 Build 0)  -->
<svg version="1.1" id="Capa_1" xmlns="http://www.w3.org/2000/svg" xmlns:xlink="http://www.w3.org/1999/xlink" x="0px" y="0px"
	 viewBox="0 0 150 150" style="enable-background:new 0 0 150 150;" xml:space="preserve">
<style type="text/css">
	.st0{fill:#596B79;}
	.st1{fill:#FFFFFF;}
</style>
<g>
	<rect class="st0" width="150" height="150"/>
	<g>
		<path class="st1" d="M58.9,101.3c0.6-0.1,1.4-0.2,2.3-0.2c1,0,1.7,0.2,2.3,0.6c0.5,0.3,0.9,0.9,0.9,1.6c0,1.2-0.9,2-2,2.3v0
			c0.9,0.3,1.5,1,1.5,2.1c0,1-0.5,1.7-1.2,2.2c-0.8,0.6-1.9,0.8-3.3,0.8c-1,0-1.7-0.1-2.2-0.1L58.9,101.3z M59,109.3
			c0.3,0,0.6,0,0.9,0c1.2,0,2.3-0.5,2.3-1.8c0-1-0.9-1.4-1.8-1.4h-0.8L59,109.3z M59.8,105h0.8c1.2,0,2.1-0.6,2.1-1.5
			c0-0.8-0.6-1.1-1.5-1.1c-0.4,0-0.7,0-0.9,0.1L59.8,105z"/>
		<path class="st1" d="M67.2,107.8l-1.3,2.7h-1.7l4.7-9.4h2l1.2,9.4h-1.7l-0.3-2.7H67.2z M70.1,106.6l-0.3-2.4
			c0-0.5-0.1-1.2-0.1-1.8h0c-0.3,0.6-0.5,1.2-0.8,1.8l-1.1,2.4H70.1z"/>
		<path class="st1" d="M73.3,110.5l1.8-9.4h1.9l1.7,4.4c0.4,1.1,0.6,2,0.9,3h0c0.1-0.9,0.2-1.8,0.4-3.2l0.8-4.1h1.5l-1.8,9.4h-1.7
			l-1.7-4.5c-0.4-1.2-0.7-2-0.9-3l-0.1,0c-0.1,0.9-0.3,2.1-0.5,3.5l-0.8,4H73.3z M76.9,100.5c0.2-1,0.6-1.6,1.3-1.6
			c0.4,0,0.6,0.1,0.9,0.3c0.2,0.2,0.4,0.3,0.6,0.3c0.2,0,0.4-0.2,0.5-0.6h0.8c-0.2,1.1-0.6,1.6-1.3,1.6c-0.4,0-0.6-0.1-0.9-0.3
			c-0.2-0.1-0.4-0.3-0.6-0.3c-0.2,0-0.4,0.2-0.4,0.6H76.9z"/>
		<path class="st1" d="M91.5,104.9c0,1.7-0.6,3.4-1.7,4.5c-0.9,0.8-2,1.3-3.4,1.3c-2.4,0-3.7-1.8-3.7-3.9c0-1.7,0.6-3.4,1.8-4.5
			c0.9-0.8,2-1.3,3.3-1.3C90.3,100.9,91.5,102.7,91.5,104.9z M85.7,103.1c-0.8,0.8-1.3,2.4-1.3,3.6c0,1.4,0.6,2.6,2.2,2.6
			c0.7,0,1.3-0.3,1.8-0.8c0.8-0.8,1.3-2.4,1.3-3.6c0-1.2-0.4-2.6-2.2-2.6C86.9,102.3,86.2,102.6,85.7,103.1z"/>
	</g>
	<polygon class="st1" points="86.3,57.6 48.3,57.6 48.3,61 86.3,61 	"/>
	<path class="st1" d="M89.6,37.8V62h2.2v4.9c0,1-0.8,1.8-1.8,1.8h-4.6c0.1-0.1,0.1-0.3,0.1-0.3c0.4-1.4,0.6-2.9,0.6-4.5H48.2
		c0,16.9,12.9,22.3,12.9,22.3h11.4c0,0-0.7-6.2,11.1-14H90c3,0,5.4-2.4,5.4-5.4V62h4.2l3-24.2H89.6z"/>
	<rect x="89.6" y="32.4" class="st1" width="13.1" height="3"/>
</g>
</svg>
