<?xml version="1.0" encoding="utf-8"?>
<!-- Generator: Adobe Illustrator 19.2.1, SVG Export Plug-In . SVG Version: 6.00 Build 0)  -->
<svg version="1.1" id="Capa_1" xmlns="http://www.w3.org/2000/svg" xmlns:xlink="http://www.w3.org/1999/xlink" x="0px" y="0px"
	 viewBox="0 0 150 150" style="enable-background:new 0 0 150 150;" xml:space="preserve">
<style type="text/css">
	.st0{fill:#58410F;}
	.st1{fill:#FFFFFF;}
</style>
<g>
	<rect class="st0" width="150" height="150"/>
	<g>
		<rect x="47.2" y="44.8" class="st1" width="24.7" height="41.3"/>
		<path class="st1" d="M45.9,39.1h1.7v1.1h3.3v-1.1h10v1.1h3.4v-1.1h18.8h1.7v1.1h3.3v-1.1h3.3h3.3h3.1H98v1.1h3.3v-1.1h3.5
			c0.9,0,1.7-0.5,1.7-1.1s-0.7-1.1-1.7-1.1h-3.5v-1.1c0-0.6-0.7-1.1-1.7-1.1c-0.9,0-1.7,0.5-1.7,1.1v1.1H88v-1.1
			c0-0.6-0.7-1.1-1.7-1.1s-1.7,0.5-1.7,1.1v1.1H83h-0.1H64.2v-1.1c0-0.6-0.7-1.1-1.7-1.1s-1.7,0.5-1.7,1.1v1.1h-10v-1.1
			c0-0.6-0.7-1.1-1.7-1.1c-0.9,0-1.7,0.5-1.7,1.1v1.1h-1.7c-0.9,0-1.7,0.5-1.7,1.1C44.3,38.6,45,39.1,45.9,39.1z"/>
		<rect x="79.5" y="44.8" class="st1" width="24.9" height="41.3"/>
	</g>
	<g>
		<path class="st1" d="M51.5,110.3c-0.5,0.2-1.4,0.4-2.5,0.4c-2.5,0-4-1.5-4-4c0-2,0.8-3.6,2.2-4.7c1-0.7,2.2-1.1,3.5-1.1
			c1,0,1.8,0.3,2.1,0.4l-0.5,1.3c-0.3-0.2-1-0.3-1.8-0.3c-0.9,0-1.8,0.3-2.4,0.9c-0.8,0.7-1.4,1.9-1.4,3.3c0,1.6,0.8,2.8,2.7,2.8
			c0.7,0,1.4-0.1,1.9-0.4L51.5,110.3z"/>
		<path class="st1" d="M61.4,104.9c0,1.7-0.6,3.4-1.7,4.5c-0.9,0.8-2,1.3-3.4,1.3c-2.4,0-3.7-1.8-3.7-3.9c0-1.7,0.6-3.4,1.8-4.5
			c0.9-0.8,2-1.3,3.3-1.3C60.2,100.9,61.4,102.7,61.4,104.9z M55.7,103.1c-0.8,0.8-1.3,2.4-1.3,3.6c0,1.4,0.6,2.6,2.2,2.6
			c0.7,0,1.3-0.3,1.8-0.8c0.8-0.8,1.3-2.4,1.3-3.6c0-1.2-0.4-2.6-2.2-2.6C56.8,102.3,56.2,102.6,55.7,103.1z"/>
		<path class="st1" d="M63.7,101.3c0.6-0.1,1.5-0.2,2.3-0.2c0.9,0,1.8,0.2,2.4,0.6c0.5,0.4,0.9,0.9,0.9,1.7c0,1.4-1,2.3-2.2,2.7l0,0
			c0.6,0.2,0.9,0.9,1,1.8c0.1,1.2,0.2,2.3,0.3,2.6h-1.7c-0.1-0.2-0.2-1.1-0.3-2.3c-0.1-1.2-0.5-1.6-1.4-1.6h-0.8l-0.7,3.9H62
			L63.7,101.3z M64.5,105.4h0.9c1.3,0,2.1-0.8,2.1-1.8c0-0.9-0.7-1.3-1.6-1.3c-0.4,0-0.7,0-0.9,0.1L64.5,105.4z"/>
		<path class="st1" d="M72.8,102.5h-2.6l0.3-1.4h6.9l-0.3,1.4h-2.6l-1.5,8h-1.6L72.8,102.5z"/>
		<path class="st1" d="M80,101.1l-1.8,9.4h-1.6l1.8-9.4H80z"/>
		<path class="st1" d="M80.2,110.5l1.8-9.4h1.9l1.7,4.4c0.4,1.1,0.6,2,0.9,3h0c0.1-0.9,0.2-1.8,0.4-3.2l0.8-4.1h1.5l-1.8,9.4h-1.7
			l-1.7-4.5c-0.4-1.2-0.7-2-0.9-3l-0.1,0c-0.1,0.9-0.3,2.1-0.5,3.5l-0.8,4H80.2z"/>
		<path class="st1" d="M91.6,107.8l-1.3,2.7h-1.7l4.7-9.4h2l1.2,9.4h-1.7l-0.3-2.7H91.6z M94.5,106.6l-0.3-2.4
			c0-0.5-0.1-1.2-0.1-1.8h0c-0.3,0.6-0.5,1.2-0.8,1.8l-1.1,2.4H94.5z"/>
		<path class="st1" d="M98,108.7c0.5,0.4,1.3,0.6,2.1,0.6c0.9,0,1.8-0.5,1.8-1.4c0-0.6-0.4-1-1.3-1.5c-1.1-0.6-1.9-1.3-1.9-2.5
			c0-1.8,1.6-2.9,3.5-2.9c1.1,0,1.7,0.3,2.1,0.5l-0.5,1.4c-0.3-0.2-0.9-0.4-1.7-0.4c-1,0-1.6,0.6-1.6,1.2c0,0.6,0.5,1,1.4,1.5
			c1.1,0.6,1.8,1.4,1.8,2.5c0,1.9-1.5,3.1-3.6,3.1c-1.1,0-2.1-0.3-2.5-0.7L98,108.7z"/>
	</g>
</g>
</svg>
