<?xml version="1.0" encoding="utf-8"?>
<!-- Generator: Adobe Illustrator 19.2.1, SVG Export Plug-In . SVG Version: 6.00 Build 0)  -->
<svg version="1.1" id="Capa_1" xmlns="http://www.w3.org/2000/svg" xmlns:xlink="http://www.w3.org/1999/xlink" x="0px" y="0px"
	 viewBox="0 0 150 150" style="enable-background:new 0 0 150 150;" xml:space="preserve">
<style type="text/css">
	.st0{fill:#986142;}
	.st1{fill:#FFFFFF;}
</style>
<g>
	<rect class="st0" width="150" height="150"/>
	<g>
		<polygon class="st1" points="72.4,58.5 53.4,58.5 43.8,73.2 70.7,73.2 		"/>
		<polygon class="st1" points="78.7,58.5 80.3,73.2 107.1,73.2 97.5,58.5 		"/>
		<polygon class="st1" points="74.1,44.9 61.7,44.9 55.3,54.7 73,54.7 		"/>
		<polygon class="st1" points="77,44.9 78.1,54.7 95.8,54.7 89.4,44.9 		"/>
	</g>
	<g>
		<path class="st1" d="M25.6,101.3c0.6-0.1,1.5-0.2,2.3-0.2c0.9,0,1.8,0.2,2.4,0.6c0.5,0.4,0.9,0.9,0.9,1.7c0,1.4-1,2.3-2.2,2.7l0,0
			c0.6,0.2,0.9,0.9,1,1.8c0.1,1.2,0.2,2.3,0.3,2.6h-1.7c-0.1-0.2-0.2-1.1-0.3-2.3c-0.1-1.2-0.5-1.6-1.4-1.6h-0.8l-0.7,3.9h-1.6
			L25.6,101.3z M26.4,105.4h0.9c1.3,0,2.1-0.8,2.1-1.8c0-0.9-0.7-1.3-1.6-1.3c-0.4,0-0.7,0-0.9,0.1L26.4,105.4z"/>
		<path class="st1" d="M37.4,106.3H34l-0.5,2.8h3.8l-0.3,1.4h-5.4l1.8-9.4h5.2l-0.3,1.4h-3.6l-0.5,2.5h3.4L37.4,106.3z"/>
		<path class="st1" d="M40.6,110.5l-1.2-9.4h1.7l0.5,5.2c0.1,1,0.2,1.7,0.2,2.5h0c0.3-0.8,0.7-1.6,1.2-2.6l2.5-5.1h1.8l-4.9,9.4
			H40.6z"/>
		<path class="st1" d="M52.6,106.3h-3.4l-0.5,2.8h3.8l-0.3,1.4h-5.4l1.8-9.4h5.2l-0.3,1.4h-3.6l-0.5,2.5h3.4L52.6,106.3z"/>
		<path class="st1" d="M54,108.7c0.5,0.4,1.3,0.6,2.1,0.6c0.9,0,1.8-0.5,1.8-1.4c0-0.6-0.4-1-1.3-1.5c-1.1-0.6-1.9-1.3-1.9-2.5
			c0-1.8,1.6-2.9,3.5-2.9c1.1,0,1.7,0.3,2.1,0.5l-0.5,1.4c-0.3-0.2-0.9-0.4-1.7-0.4c-1,0-1.6,0.6-1.6,1.2c0,0.6,0.5,1,1.4,1.5
			c1.1,0.6,1.8,1.4,1.8,2.5c0,1.9-1.5,3.1-3.6,3.1c-1.1,0-2.1-0.3-2.5-0.7L54,108.7z"/>
		<path class="st1" d="M63.8,102.5h-2.6l0.3-1.4h6.9l-0.3,1.4h-2.6l-1.5,8h-1.6L63.8,102.5z"/>
		<path class="st1" d="M71,101.1l-1.8,9.4h-1.6l1.8-9.4H71z"/>
		<path class="st1" d="M79.1,110.5l0.6-4.4c0.1-1,0.3-2.3,0.6-3.5h0c-0.5,1.1-1.1,2.3-1.6,3.3l-2.3,4.5h-1.3l-0.5-4.4
			c-0.1-1-0.2-2.3-0.3-3.4h0c-0.3,1.1-0.5,2.5-0.8,3.5l-1.1,4.4H71l2.4-9.4h2.2l0.5,4.4c0.1,0.8,0.2,1.8,0.2,2.7h0.1
			c0.3-0.9,0.8-1.9,1.2-2.7l2.3-4.4h2.2l-1.2,9.4H79.1z"/>
		<path class="st1" d="M85.8,101.1l-1.8,9.4h-1.6l1.8-9.4H85.8z"/>
		<path class="st1" d="M91.8,106.3h-3.4l-0.5,2.8h3.8l-0.3,1.4H86l1.8-9.4H93l-0.3,1.4h-3.6l-0.5,2.5h3.4L91.8,106.3z"/>
		<path class="st1" d="M92.9,110.5l1.8-9.4h1.9l1.7,4.4c0.4,1.1,0.6,2,0.9,3h0c0.1-0.9,0.2-1.8,0.4-3.2l0.8-4.1h1.5l-1.8,9.4h-1.7
			l-1.7-4.5c-0.4-1.2-0.7-2-0.9-3l-0.1,0c-0.1,0.9-0.3,2.1-0.5,3.5l-0.8,4H92.9z"/>
		<path class="st1" d="M105.3,102.5h-2.6l0.3-1.4h6.9l-0.3,1.4h-2.6l-1.5,8h-1.6L105.3,102.5z"/>
		<path class="st1" d="M118,104.9c0,1.7-0.6,3.4-1.7,4.5c-0.9,0.8-2,1.3-3.4,1.3c-2.4,0-3.7-1.8-3.7-3.9c0-1.7,0.6-3.4,1.8-4.5
			c0.9-0.8,2-1.3,3.3-1.3C116.8,100.9,118,102.7,118,104.9z M112.2,103.1c-0.8,0.8-1.3,2.4-1.3,3.6c0,1.4,0.6,2.6,2.2,2.6
			c0.7,0,1.3-0.3,1.8-0.8c0.8-0.8,1.3-2.4,1.3-3.6c0-1.2-0.4-2.6-2.2-2.6C113.4,102.3,112.7,102.6,112.2,103.1z"/>
		<path class="st1" d="M118.8,108.7c0.5,0.4,1.3,0.6,2.1,0.6c0.9,0,1.8-0.5,1.8-1.4c0-0.6-0.4-1-1.3-1.5c-1.1-0.6-1.9-1.3-1.9-2.5
			c0-1.8,1.6-2.9,3.5-2.9c1.1,0,1.7,0.3,2.1,0.5l-0.5,1.4c-0.3-0.2-0.9-0.4-1.7-0.4c-1,0-1.6,0.6-1.6,1.2c0,0.6,0.5,1,1.4,1.5
			c1.1,0.6,1.8,1.4,1.8,2.5c0,1.9-1.5,3.1-3.6,3.1c-1.1,0-2.1-0.3-2.5-0.7L118.8,108.7z"/>
	</g>
</g>
</svg>
