<?xml version="1.0" encoding="utf-8"?>
<!-- Generator: Adobe Illustrator 19.2.1, SVG Export Plug-In . SVG Version: 6.00 Build 0)  -->
<svg version="1.1" id="Capa_1" xmlns="http://www.w3.org/2000/svg" xmlns:xlink="http://www.w3.org/1999/xlink" x="0px" y="0px"
	 viewBox="0 0 95 51" style="enable-background:new 0 0 95 51;" xml:space="preserve">
<style type="text/css">
	.st0{fill:#FFFFFF;}
</style>
<g>
	<path class="st0" d="M73.2,14H19.5c-2.4,0-4.4-2-4.4-4.4l0,0c0-2.4,2-4.4,4.4-4.4h53.8c2.4,0,4.4,2,4.4,4.4l0,0
		C77.7,12,75.7,14,73.2,14z"/>
	<path class="st0" d="M73.2,29.9H19.5c-2.4,0-4.4-2-4.4-4.4l0,0c0-2.4,2-4.4,4.4-4.4h53.8c2.4,0,4.4,2,4.4,4.4l0,0
		C77.7,27.9,75.7,29.9,73.2,29.9z"/>
	<path class="st0" d="M73.2,45.8H19.5c-2.4,0-4.4-2-4.4-4.4l0,0c0-2.4,2-4.4,4.4-4.4h53.8c2.4,0,4.4,2,4.4,4.4l0,0
		C77.7,43.8,75.7,45.8,73.2,45.8z"/>
</g>
</svg>
