<?xml version="1.0" encoding="utf-8"?>
<!-- Generator: Adobe Illustrator 19.2.1, SVG Export Plug-In . SVG Version: 6.00 Build 0)  -->
<svg version="1.1" id="Capa_1" xmlns="http://www.w3.org/2000/svg" xmlns:xlink="http://www.w3.org/1999/xlink" x="0px" y="0px"
	 viewBox="0 0 150 150" style="enable-background:new 0 0 150 150;" xml:space="preserve">
<style type="text/css">
	.st0{fill:#FFFFFF;}
</style>
<g>
	<path class="st0" d="M101.1,64.9c-1.9,0-3.9-0.4-5.6-1.1l-14.7,9.6v16.9c0,2.4-1,4.7-2.8,6.4L77.7,97l-16.2,11.8L45.9,98l17.7-12
		V71.6L13.8,105l46.6,24.7l71.8-48.3L101.1,64.9C101.2,64.9,101.1,64.9,101.1,64.9z"/>
	<path class="st0" d="M134.2,24.2c-2.9-4.1-8.6-5.1-12.7-2.2l-26,18.4c-3.7,2.6-4.8,7.6-2.8,11.5L71,66.1c-0.6,0.4-0.9,1-0.9,1.7
		v20.6L57.4,97l4,2.7l12.2-8.8c0.4-0.4,0.7-0.9,0.7-1.5V68.9l20.9-13.6c3.1,2.6,7.7,2.9,11.1,0.5l26-18.4c4.1-2.9,5.1-8.6,2.2-12.7
		L134.2,24.2z"/>
</g>
</svg>
