<?xml version="1.0" encoding="utf-8"?>
<!-- Generator: Adobe Illustrator 19.2.1, SVG Export Plug-In . SVG Version: 6.00 Build 0)  -->
<svg version="1.1" id="Capa_1" xmlns="http://www.w3.org/2000/svg" xmlns:xlink="http://www.w3.org/1999/xlink" x="0px" y="0px"
	 viewBox="0 0 150 150" style="enable-background:new 0 0 150 150;" xml:space="preserve">
<style type="text/css">
	.st0{fill:#FFFFFF;}
</style>
<g>
	<polygon class="st0" points="100.6,68.8 16.2,68.9 16.2,76.3 100.6,76.3 	"/>
	<path class="st0" d="M108.1,24.8v53.8l5,0v10.9c0,2.2-1.8,4-4,4H98.9c0.1-0.3,0.2-0.5,0.2-0.5c0.9-3.1,1.4-6.4,1.4-9.9H16.2
		c0,37.4,28.8,49.6,28.8,49.6h25.2c0,0-1.6-13.6,24.7-31.1h14.2c6.7,0,12.1-5.4,12.1-12.1V78.6l9.3,0l6.7-53.8L108.1,24.8z"/>
	<rect x="108.1" y="12.8" class="st0" width="29.1" height="6.7"/>
</g>
</svg>
