<?xml version="1.0" encoding="utf-8"?>
<!-- Generator: Adobe Illustrator 19.2.1, SVG Export Plug-In . SVG Version: 6.00 Build 0)  -->
<svg version="1.1" id="Capa_1" xmlns="http://www.w3.org/2000/svg" xmlns:xlink="http://www.w3.org/1999/xlink" x="0px" y="0px"
	 viewBox="0 0 150 150" style="enable-background:new 0 0 150 150;" xml:space="preserve">
<style type="text/css">
	.st0{fill:#FFFFFF;}
</style>
<g>
	<path class="st0" d="M102.3,100.2H54.6c-2.9,0-5.3-2.4-5.3-5.3V88l0.1,0.1v-8c-0.1-0.3-0.1-0.6-0.1-1V66.6V52.7v-0.9h0.1v-5.1h-0.1
		v-8.9c0-0.1,0-0.2,0-0.3v-0.1c0-0.1,0-0.1,0-0.2c0-0.1,0-0.1-0.1-0.1c0-0.1,0-0.1,0-0.1c0-0.1-0.1-0.1-0.1-0.2v-0.1
		c0-0.1-0.1-0.1-0.1-0.1c0,0,0-0.1-0.1-0.1c0-0.1-0.1-0.1-0.1-0.1c0-0.1-0.1-0.1-0.1-0.1c0-0.1-0.1-0.1-0.1-0.1
		c0-0.1-0.1-0.1-0.1-0.1l-0.1-0.1c-0.1-0.1-0.1-0.1-0.1-0.1L48.6,36c-0.1-0.1-0.1-0.1-0.1-0.1l-0.1-0.1c-0.1-0.1-0.1-0.1-0.1-0.1
		c-0.1-0.1-0.1-0.1-0.1-0.1s-0.1,0-0.1-0.1c-0.1-0.1-0.2-0.1-0.3-0.1L34,29.7c-1.3-0.5-2.8,0.1-3.3,1.4c-0.5,1.3,0.1,2.8,1.4,3.3
		l12.3,5.2v11.5v1.8v13.9v12.4v15.7c0,5.2,3.9,9.6,9,10.3c-0.9,1.5-1.5,3.4-1.5,5.2c0,5.6,4.6,10.2,10.2,10.2s10.2-4.6,10.2-10.2
		c0-1.9-0.5-3.7-1.4-5.2h22.7c-0.9,1.5-1.4,3.3-1.4,5.2c0,5.6,4.6,10.2,10.2,10.2c5.6,0,10.2-4.6,10.2-10.2
		C112.6,104.7,108,100.2,102.3,100.2z M62,115.5c-2.8,0-5.2-2.3-5.2-5.2c0-2.8,2.3-5.2,5.2-5.2c2.8,0,5.2,2.3,5.2,5.2
		C67.2,113.2,64.9,115.5,62,115.5z M102.4,115.5c-2.8,0-5.2-2.3-5.2-5.2c0-2.8,2.3-5.2,5.2-5.2s5.2,2.3,5.2,5.2
		C107.6,113.2,105.3,115.5,102.4,115.5z"/>
	<path class="st0" d="M119.5,57.7c0-0.1,0-0.1,0-0.1c0-0.1,0-0.1,0-0.1s0-0.1-0.1-0.1c0-0.1,0-0.1-0.1-0.1c0-0.1,0-0.1-0.1-0.1
		c-0.1-0.1-0.1-0.1-0.1-0.1c0-0.1-0.1-0.1-0.1-0.1c0-0.1-0.1-0.1-0.1-0.1c0-0.1-0.1-0.1-0.1-0.1c0-0.1-0.1-0.1-0.1-0.1
		c0-0.1-0.1-0.1-0.1-0.1c0-0.1-0.1-0.1-0.1-0.1c0-0.1-0.1-0.1-0.1-0.1c0-0.1-0.1-0.1-0.1-0.1c-0.1-0.1-0.1-0.1-0.1-0.1
		c-0.1,0-0.1-0.1-0.1-0.1c-0.1,0-0.1-0.1-0.1-0.1c-0.1,0-0.1-0.1-0.1-0.1c-0.1,0-0.1-0.1-0.1-0.1c-0.1,0-0.1-0.1-0.1-0.1
		c-0.1,0-0.1-0.1-0.1-0.1c-0.1,0-0.1-0.1-0.1-0.1c-0.1,0-0.1,0-0.1-0.1c-0.1,0-0.1-0.1-0.1-0.1c-0.1,0-0.1,0-0.1,0
		c-0.1,0-0.1,0-0.1,0h-0.1l-59.3-8.3v5.1l56.3,7.7v19c0,3-2.4,5.3-5.3,5.3H58.9c-0.3,0-0.6,0-0.8-0.1v5.1c0.3,0,0.6,0.1,0.8,0.1
		h50.2c5.7,0,10.3-4.6,10.3-10.3V58v-0.1c0-0.1,0-0.1,0-0.1C119.5,57.7,119.5,57.7,119.5,57.7z"/>
</g>
</svg>
