<?xml version="1.0" encoding="utf-8"?>
<!-- Generator: Adobe Illustrator 19.2.1, SVG Export Plug-In . SVG Version: 6.00 Build 0)  -->
<svg version="1.1" id="Capa_1" xmlns="http://www.w3.org/2000/svg" xmlns:xlink="http://www.w3.org/1999/xlink" x="0px" y="0px"
	 viewBox="0 0 89.9 69.5" style="enable-background:new 0 0 89.9 69.5;" xml:space="preserve">
<style type="text/css">
	.st0{fill:#A29478;}
	.st1{fill:#FFFFFF;}
</style>
<g>
	<path class="st0" d="M87,69.5H3c-1.7,0-3-1.4-3-3V3c0-1.7,1.4-3,3-3h83.9c1.7,0,3,1.4,3,3v63.5C90,68.2,88.7,69.5,87,69.5z"/>
	<g>
		<rect x="16.7" y="20.2" class="st1" width="24.7" height="41.3"/>
		<path class="st1" d="M15.4,14.5h1.7v1.1h3.3v-1.1h10v1.1h3.4v-1.1h18.8h1.7v1.1h3.3v-1.1h3.3h3.3h3.1h0.2v1.1h3.3v-1.1h3.5
			c0.9,0,1.7-0.5,1.7-1.1s-0.7-1.1-1.7-1.1h-3.5v-1.1c0-0.6-0.7-1.1-1.7-1.1c-0.9,0-1.7,0.5-1.7,1.1v1.1h-9.9v-1.1
			c0-0.6-0.7-1.1-1.7-1.1s-1.7,0.5-1.7,1.1v1.1h-1.6h-0.1H33.7v-1.1c0-0.6-0.7-1.1-1.7-1.1s-1.7,0.5-1.7,1.1v1.1h-10v-1.1
			c0-0.6-0.7-1.1-1.7-1.1c-0.9,0-1.7,0.5-1.7,1.1v1.1h-1.7c-0.9,0-1.7,0.5-1.7,1.1C13.8,14,14.5,14.5,15.4,14.5z"/>
		<rect x="49" y="20.2" class="st1" width="24.9" height="41.3"/>
	</g>
</g>
</svg>
