<?xml version="1.0" encoding="utf-8"?>
<!-- Generator: Adobe Illustrator 16.0.0, SVG Export Plug-In . SVG Version: 6.00 Build 0)  -->
<!DOCTYPE svg PUBLIC "-//W3C//DTD SVG 1.1//EN" "http://www.w3.org/Graphics/SVG/1.1/DTD/svg11.dtd">
<svg version="1.1" id="Capa_1" xmlns="http://www.w3.org/2000/svg" xmlns:xlink="http://www.w3.org/1999/xlink" x="0px" y="0px"
	 width="605px" height="88.445px" viewBox="118.14 0 605 88.445" enable-background="new 118.14 0 605 88.445" xml:space="preserve"
	>
<g id="Capa_2">
</g>
<path fill="#FFFFFF" d="M259.958,42.188c-0.638-2.798-1.823-4.787-3.556-5.972c-1.731-1.185-3.997-1.777-6.792-1.777
	c-1.976,0-3.677,0.396-5.104,1.186c-1.43,0.79-2.605,1.854-3.534,3.19c-0.928,1.338-1.612,2.88-2.052,4.627
	c-0.441,1.748-0.66,3.592-0.66,5.537c0,1.825,0.189,3.617,0.57,5.38c0.379,1.763,1.011,3.337,1.892,4.717
	c0.881,1.384,2.065,2.502,3.556,3.351c1.487,0.851,3.357,1.277,5.606,1.277c1.397,0,2.673-0.228,3.829-0.684
	c1.155-0.456,2.164-1.086,3.03-1.892c0.867-0.806,1.597-1.756,2.189-2.85c0.593-1.094,1.042-2.294,1.345-3.603h3.236
	c-0.365,1.583-0.897,3.078-1.595,4.491c-0.7,1.413-1.619,2.653-2.758,3.714c-1.139,1.064-2.522,1.909-4.148,2.53
	c-1.626,0.623-3.533,0.935-5.721,0.935c-2.523,0-4.68-0.463-6.474-1.391c-1.792-0.925-3.258-2.179-4.397-3.759
	c-1.141-1.58-1.969-3.411-2.486-5.493c-0.517-2.082-0.774-4.292-0.774-6.632c0-3.13,0.389-5.791,1.16-7.977
	c0.776-2.188,1.849-3.972,3.215-5.355c1.367-1.383,2.977-2.385,4.833-3.008c1.853-0.624,3.875-0.935,6.064-0.935
	c1.668,0,3.228,0.221,4.671,0.663c1.444,0.439,2.72,1.103,3.829,1.982c1.109,0.879,2.021,1.968,2.735,3.258
	c0.712,1.293,1.208,2.789,1.48,4.491H259.958z"/>
<path fill="#FFFFFF" d="M268.301,49.115c0-2.4,0.324-4.65,0.98-6.745c0.652-2.098,1.617-3.926,2.894-5.492
	c1.278-1.566,2.856-2.806,4.741-3.715c1.884-0.913,4.058-1.369,6.52-1.369c2.553,0,4.794,0.45,6.724,1.344
	c1.93,0.898,3.539,2.127,4.832,3.693c1.291,1.566,2.264,3.402,2.919,5.516c0.652,2.112,0.979,4.367,0.979,6.768
	c0,2.371-0.326,4.598-0.979,6.679c-0.655,2.082-1.619,3.903-2.896,5.471c-1.276,1.565-2.871,2.802-4.785,3.715
	c-1.915,0.91-4.134,1.366-6.656,1.366c-2.521,0-4.738-0.457-6.654-1.366c-1.915-0.913-3.508-2.149-4.786-3.715
	c-1.275-1.566-2.232-3.389-2.871-5.471C268.62,53.713,268.301,51.486,268.301,49.115z M283.617,63.703
	c2.128,0,3.959-0.402,5.492-1.209c1.535-0.806,2.797-1.875,3.783-3.213c0.99-1.338,1.719-2.888,2.189-4.65
	c0.472-1.764,0.707-3.603,0.707-5.517c0-2.279-0.281-4.321-0.844-6.13c-0.562-1.809-1.375-3.352-2.438-4.629
	s-2.355-2.249-3.875-2.918c-1.52-0.667-3.221-1-5.104-1c-2.098,0-3.914,0.41-5.448,1.228c-1.533,0.822-2.797,1.909-3.784,3.259
	c-0.987,1.354-1.718,2.912-2.187,4.674c-0.473,1.762-0.708,3.6-0.708,5.515c0,1.946,0.233,3.799,0.708,5.561
	c0.469,1.765,1.2,3.313,2.187,4.651c0.987,1.336,2.25,2.401,3.784,3.191C279.612,63.307,281.459,63.703,283.617,63.703z"/>
<path fill="#FFFFFF" d="M304.904,65.482V32.66h4.741l10.757,28.946h0.092L331.07,32.66h4.695v32.822h-3.1V36.216h-0.09
	l-10.759,29.266H318.9l-10.807-29.266h-0.09v29.266H304.904z"/>
<path fill="#FFFFFF" d="M343.013,65.482V32.66h21.836v2.646h-18.736v11.85h16.912v2.646h-16.912V62.84h19.189v2.643H343.013
	L343.013,65.482z"/>
<path fill="#FFFFFF" d="M373.917,50.574v14.905l-3.1-0.045V32.659h12.856c3.614,0,6.38,0.677,8.294,2.03
	c1.916,1.352,2.873,3.549,2.873,6.587c0,2.067-0.419,3.707-1.254,4.922c-0.836,1.216-2.195,2.249-4.079,3.1
	c0.971,0.334,1.731,0.821,2.279,1.459c0.548,0.639,0.956,1.367,1.231,2.188c0.273,0.819,0.445,1.687,0.523,2.597
	c0.076,0.912,0.129,1.794,0.158,2.645c0.032,1.247,0.085,2.279,0.159,3.099c0.077,0.821,0.167,1.49,0.276,2.006
	c0.105,0.517,0.232,0.919,0.387,1.209c0.151,0.289,0.334,0.508,0.547,0.66v0.273l-3.419,0.045c-0.334-0.546-0.569-1.306-0.708-2.279
	c-0.135-0.972-0.244-1.99-0.318-3.054c-0.076-1.064-0.137-2.098-0.183-3.101c-0.046-1.001-0.13-1.823-0.252-2.461
	c-0.181-0.882-0.478-1.587-0.888-2.119c-0.412-0.532-0.905-0.934-1.48-1.209c-0.578-0.273-1.225-0.455-1.938-0.547
	c-0.716-0.09-1.45-0.136-2.209-0.136h-9.757V50.574z M383.582,47.929c1.156,0,2.228-0.121,3.214-0.363
	c0.987-0.244,1.846-0.63,2.577-1.163c0.729-0.531,1.305-1.208,1.729-2.03c0.427-0.82,0.638-1.806,0.638-2.962
	c0-1.214-0.221-2.218-0.658-3.008c-0.443-0.791-1.035-1.414-1.779-1.87c-0.746-0.456-1.598-0.775-2.555-0.957
	c-0.956-0.182-1.951-0.273-2.983-0.273h-9.847v12.625h9.664V47.929z"/>
<path fill="#FFFFFF" d="M424.563,42.188c-0.64-2.798-1.824-4.787-3.556-5.972c-1.734-1.185-4-1.777-6.795-1.777
	c-1.975,0-3.675,0.396-5.104,1.186c-1.43,0.79-2.605,1.854-3.533,3.19c-0.928,1.338-1.612,2.88-2.053,4.627
	c-0.439,1.748-0.66,3.592-0.66,5.537c0,1.825,0.189,3.617,0.57,5.38c0.379,1.763,1.01,3.337,1.891,4.717
	c0.881,1.384,2.066,2.502,3.557,3.351c1.487,0.851,3.357,1.277,5.605,1.277c1.398,0,2.674-0.228,3.83-0.684s2.164-1.086,3.03-1.892
	c0.864-0.806,1.597-1.756,2.188-2.85c0.594-1.094,1.039-2.294,1.344-3.603h3.236c-0.364,1.583-0.896,3.078-1.595,4.491
	c-0.7,1.413-1.618,2.653-2.758,3.714c-1.14,1.064-2.522,1.909-4.149,2.53c-1.625,0.623-3.53,0.935-5.721,0.935
	c-2.521,0-4.68-0.463-6.473-1.391c-1.793-0.925-3.26-2.179-4.397-3.759c-1.14-1.58-1.968-3.411-2.487-5.493
	c-0.515-2.082-0.771-4.292-0.771-6.632c0-3.13,0.387-5.791,1.161-7.977c0.774-2.188,1.847-3.972,3.214-5.355
	c1.369-1.383,2.976-2.385,4.832-3.008c1.854-0.624,3.877-0.935,6.064-0.935c1.668,0,3.228,0.221,4.673,0.663
	c1.442,0.439,2.718,1.103,3.828,1.982c1.11,0.879,2.019,1.968,2.735,3.258c0.713,1.293,1.209,2.789,1.479,4.491H424.563z"/>
<path fill="#FFFFFF" d="M435.274,65.482V32.66h3.101v32.822H435.274z"/>
<path fill="#FFFFFF" d="M443.843,65.482l12.9-32.822h3.508l12.582,32.822h-3.191l-3.783-10.303h-14.952l-3.874,10.303H443.843z
	 M451.958,52.534h12.854l-6.429-17.229L451.958,52.534z"/>
<path fill="#FFFFFF" d="M477.257,65.482V32.66h3.1v30.18h17.595v2.643H477.257L477.257,65.482z"/>
<path fill="#FFFFFF" d="M515.361,38.586v26.894h-6.836V38.586h-9.892v-5.789h26.619v5.789H515.361z"/>
<path fill="#FFFFFF" d="M527.806,49.115c0-4.678,1.034-8.446,3.1-11.305c1.61-2.217,3.827-3.842,6.654-4.875
	c1.914-0.699,3.922-1.049,6.018-1.049c2.064,0,4.057,0.35,5.971,1.049c2.797,1.033,4.999,2.659,6.609,4.875
	c2.066,2.859,3.1,6.627,3.1,11.305c0,4.68-1.033,8.448-3.1,11.305c-1.611,2.25-3.798,3.874-6.564,4.878
	c-1.914,0.699-3.919,1.049-6.017,1.049c-2.097,0-4.103-0.35-6.017-1.049c-2.766-1.004-4.97-2.628-6.608-4.878
	C528.857,57.534,527.806,53.764,527.806,49.115z M534.642,49.115c0,4.134,1.02,7.188,3.056,9.163c1.579,1.52,3.538,2.279,5.88,2.279
	c2.309,0,4.24-0.761,5.791-2.279c2.037-1.976,3.055-5.029,3.055-9.163c0-4.132-1.005-7.186-3.01-9.164
	c-1.551-1.52-3.495-2.276-5.836-2.276c-2.308,0-4.254,0.759-5.835,2.276C535.677,41.929,534.642,44.983,534.642,49.115z"/>
<path fill="#FFFFFF" d="M571.613,32.798v26.758h16.273v5.927h-23.11V32.798H571.613z"/>
<path fill="#FFFFFF" d="M616.694,32.798v5.789h-17.367v6.839h15.956v5.788h-15.956v8.479h18.143v5.789h-24.843V32.8h24.067V32.798z"
	/>
<path fill="#FFFFFF" d="M623.032,65.482V32.798h14.447c4.927,0,8.526,1.821,10.806,5.462c1.672,2.672,2.51,6.04,2.51,10.104
	c0,4.402-0.912,8.118-2.737,11.152c-2.37,3.977-5.987,5.963-10.849,5.963h-14.177V65.482z M629.685,38.449l0.045,21.381h6.656
	c2.551,0,4.482-1.155,5.789-3.457c1.096-1.941,1.639-4.443,1.639-7.507c0-4.243-0.894-7.185-2.688-8.823
	c-1.153-1.062-2.779-1.594-4.874-1.594H629.685L629.685,38.449z"/>
<path fill="#FFFFFF" d="M654.437,49.115c0-4.678,1.035-8.446,3.101-11.305c1.61-2.217,3.829-3.842,6.656-4.875
	c1.911-0.699,3.919-1.049,6.017-1.049c2.066,0,4.055,0.35,5.973,1.049c2.795,1.033,4.996,2.659,6.605,4.875
	c2.068,2.859,3.1,6.627,3.1,11.305c0,4.68-1.031,8.448-3.1,11.305c-1.609,2.25-3.797,3.874-6.563,4.878
	c-1.912,0.699-3.919,1.049-6.017,1.049c-2.096,0-4.104-0.35-6.018-1.049c-2.766-1.004-4.969-2.628-6.608-4.878
	C655.488,57.534,654.437,53.764,654.437,49.115z M661.274,49.115c0,4.134,1.019,7.188,3.056,9.163
	c1.58,1.52,3.539,2.279,5.881,2.279c2.308,0,4.24-0.761,5.789-2.279c2.037-1.976,3.055-5.029,3.055-9.163
	c0-4.132-1.002-7.186-3.01-9.164c-1.551-1.52-3.494-2.276-5.834-2.276c-2.31,0-4.256,0.759-5.836,2.276
	C662.308,41.929,661.274,44.983,661.274,49.115z"/>
<g>
	<polygon fill="#FFFFFF" points="154.384,20.89 154.384,28.475 169.125,28.475 169.139,68.346 177.991,68.346 177.977,28.475 
		192.436,28.475 192.436,20.89 	"/>
	<polygon fill="#FFFFFF" points="195.404,32.058 195.404,58.577 195.431,58.577 195.431,62.105 181.522,62.105 181.522,68.346 
		217.847,68.346 217.847,32.058 	"/>
	<rect x="181.522" y="32.058" fill="#FFFFFF" width="10.373" height="26.519"/>
	<rect x="154.384" y="31.953" fill="#FFFFFF" width="11.185" height="26.625"/>
	<polygon fill="#FFFFFF" points="154.384,62.105 154.384,62.17 150.857,62.17 150.857,31.953 129.251,31.953 129.251,68.346 
		165.569,68.346 165.569,62.105 	"/>
</g>
</svg>
