<?xml version="1.0" encoding="utf-8"?>
<!-- Generator: Adobe Illustrator 19.2.1, SVG Export Plug-In . SVG Version: 6.00 Build 0)  -->
<svg version="1.1" id="Capa_1" xmlns="http://www.w3.org/2000/svg" xmlns:xlink="http://www.w3.org/1999/xlink" x="0px" y="0px"
	 viewBox="0 0 89.9 69.5" style="enable-background:new 0 0 89.9 69.5;" xml:space="preserve">
<style type="text/css">
	.st0{fill:#A8A7A6;}
	.st1{fill:#FFFFFF;}
</style>
<g>
	<path class="st0" d="M87,69.5H3c-1.7,0-3-1.4-3-3V3c0-1.7,1.4-3,3-3h83.9c1.7,0,3,1.4,3,3v63.5C90,68.2,88.7,69.5,87,69.5z"/>
	<path class="st1" d="M55,29.4c-1,0-2-0.2-2.9-0.5l-7.5,4.9v8.6c0,1.2-0.5,2.4-1.4,3.3l-0.1,0.1l-8.3,6l-8-5.5l9-6.1v-7.4l-25.4,17
		l23.8,12.6l36.7-24.6L55,29.4L55,29.4z"/>
	<path class="st1" d="M71.9,9.1C70.4,7,67.5,6.5,65.4,8l-13.3,9.4c-1.9,1.4-2.5,3.9-1.4,5.9l-11.1,7.2c-0.3,0.2-0.5,0.5-0.5,0.9V42
		l-6.4,4.4l2,1.4l6.2-4.5c0.2-0.2,0.3-0.5,0.3-0.8V31.9l10.7-7c1.6,1.4,3.9,1.5,5.7,0.3l13.3-9.4c2.1-1.5,2.6-4.4,1.1-6.5L71.9,9.1z
		"/>
</g>
</svg>
