<?xml version="1.0" encoding="utf-8"?>
<!-- Generator: Adobe Illustrator 19.2.1, SVG Export Plug-In . SVG Version: 6.00 Build 0)  -->
<svg version="1.1" id="Capa_1" xmlns="http://www.w3.org/2000/svg" xmlns:xlink="http://www.w3.org/1999/xlink" x="0px" y="0px"
	 viewBox="0 0 89.9 69.5" style="enable-background:new 0 0 89.9 69.5;" xml:space="preserve">
<style type="text/css">
	.st0{fill:#FFFFFF;}
	.st1{fill:#7D3110;}
</style>
<g>
	<g>
		<path class="st0" d="M87,69.5H3c-1.7,0-3-1.4-3-3V3c0-1.7,1.4-3,3-3h83.9c1.7,0,3,1.4,3,3v63.5C90,68.2,88.7,69.5,87,69.5z"/>
		<polygon class="st1" points="55.8,33 17.8,33 17.8,36.4 55.8,36.4 		"/>
		<path class="st1" d="M59.1,13.2v24.2h2.2v4.9c0,1-0.8,1.8-1.8,1.8h-4.6C55,44,55,43.8,55,43.8c0.4-1.4,0.6-2.9,0.6-4.5H17.7
			c0,16.9,12.9,22.3,12.9,22.3H42c0,0-0.7-6.2,11.1-14h6.4c3,0,5.4-2.4,5.4-5.4v-4.8h4.2l3-24.2H59.1z"/>
	</g>
	<rect x="59.1" y="7.8" class="st1" width="13.1" height="3"/>
</g>
</svg>
