<?xml version="1.0" encoding="utf-8"?>
<!-- Generator: Adobe Illustrator 19.2.1, SVG Export Plug-In . SVG Version: 6.00 Build 0)  -->
<svg version="1.1" id="Capa_1" xmlns="http://www.w3.org/2000/svg" xmlns:xlink="http://www.w3.org/1999/xlink" x="0px" y="0px"
	 viewBox="0 0 89.9 69.5" style="enable-background:new 0 0 89.9 69.5;" xml:space="preserve">
<style type="text/css">
	.st0{fill:#FFFFFF;}
	.st1{fill:#7D3110;}
</style>
<g>
	<path class="st0" d="M87,69.5H3c-1.7,0-3-1.4-3-3V3c0-1.7,1.4-3,3-3h83.9c1.7,0,3,1.4,3,3v63.4C90.1,68.1,88.7,69.5,87,69.5z"/>
	<g>
		<polygon class="st1" points="42,34.2 23,34.2 13.4,48.9 40.3,48.9 		"/>
		<polygon class="st1" points="48.3,34.2 49.9,48.9 76.7,48.9 67.1,34.2 		"/>
		<polygon class="st1" points="43.7,20.6 31.3,20.6 24.9,30.4 42.6,30.4 		"/>
		<polygon class="st1" points="46.6,20.6 47.7,30.4 65.4,30.4 59,20.6 		"/>
	</g>
</g>
</svg>
